<svg width="166" height="60" viewBox="0 0 166 60" fill="none" xmlns="http://www.w3.org/2000/svg">
<path d="M45.496 41.256C43.6613 41.256 42.0293 40.872 40.6 40.104C39.192 39.336 38.072 38.2907 37.24 36.968C36.4293 35.624 36.024 34.0987 36.024 32.392C36.024 30.664 36.4293 29.1387 37.24 27.816C38.072 26.472 39.192 25.4267 40.6 24.68C42.0293 23.912 43.6613 23.528 45.496 23.528C47.3093 23.528 48.9307 23.912 50.36 24.68C51.7893 25.4267 52.9093 26.4613 53.72 27.784C54.5307 29.1067 54.936 30.6427 54.936 32.392C54.936 34.0987 54.5307 35.624 53.72 36.968C52.9093 38.2907 51.7893 39.336 50.36 40.104C48.9307 40.872 47.3093 41.256 45.496 41.256ZM45.496 37.16C46.328 37.16 47.0747 36.968 47.736 36.584C48.3973 36.2 48.92 35.656 49.304 34.952C49.688 34.2267 49.88 33.3733 49.88 32.392C49.88 31.3893 49.688 30.536 49.304 29.832C48.92 29.128 48.3973 28.584 47.736 28.2C47.0747 27.816 46.328 27.624 45.496 27.624C44.664 27.624 43.9173 27.816 43.256 28.2C42.5947 28.584 42.0613 29.128 41.656 29.832C41.272 30.536 41.08 31.3893 41.08 32.392C41.08 33.3733 41.272 34.2267 41.656 34.952C42.0613 35.656 42.5947 36.2 43.256 36.584C43.9173 36.968 44.664 37.16 45.496 37.16ZM58.2728 41V23.784H63.2648V41H58.2728ZM60.7688 21.384C59.8514 21.384 59.1048 21.1173 58.5288 20.584C57.9528 20.0507 57.6648 19.3893 57.6648 18.6C57.6648 17.8107 57.9528 17.1493 58.5288 16.616C59.1048 16.0827 59.8514 15.816 60.7688 15.816C61.6861 15.816 62.4328 16.072 63.0088 16.584C63.5848 17.0747 63.8728 17.7147 63.8728 18.504C63.8728 19.336 63.5848 20.0293 63.0088 20.584C62.4541 21.1173 61.7074 21.384 60.7688 21.384ZM76.2178 41.256C74.3618 41.256 72.7084 40.8827 71.2578 40.136C69.8071 39.368 68.6658 38.312 67.8338 36.968C67.0231 35.624 66.6178 34.0987 66.6178 32.392C66.6178 30.664 67.0231 29.1387 67.8338 27.816C68.6658 26.472 69.8071 25.4267 71.2578 24.68C72.7084 23.912 74.3618 23.528 76.2178 23.528C78.0311 23.528 79.6098 23.912 80.9538 24.68C82.2978 25.4267 83.2898 26.504 83.9298 27.912L80.0578 29.992C79.6098 29.1813 79.0444 28.584 78.3618 28.2C77.7004 27.816 76.9751 27.624 76.1858 27.624C75.3324 27.624 74.5644 27.816 73.8818 28.2C73.1991 28.584 72.6551 29.128 72.2498 29.832C71.8658 30.536 71.6738 31.3893 71.6738 32.392C71.6738 33.3947 71.8658 34.248 72.2498 34.952C72.6551 35.656 73.1991 36.2 73.8818 36.584C74.5644 36.968 75.3324 37.16 76.1858 37.16C76.9751 37.16 77.7004 36.9787 78.3618 36.616C79.0444 36.232 79.6098 35.624 80.0578 34.792L83.9298 36.904C83.2898 38.2907 82.2978 39.368 80.9538 40.136C79.6098 40.8827 78.0311 41.256 76.2178 41.256ZM95.1293 41.256C93.1666 41.256 91.4386 40.872 89.9453 40.104C88.4733 39.336 87.3319 38.2907 86.5213 36.968C85.7106 35.624 85.3053 34.0987 85.3053 32.392C85.3053 30.664 85.6999 29.1387 86.4893 27.816C87.2999 26.472 88.3986 25.4267 89.7853 24.68C91.1719 23.912 92.7399 23.528 94.4893 23.528C96.1746 23.528 97.6893 23.8907 99.0333 24.616C100.399 25.32 101.476 26.344 102.265 27.688C103.055 29.0107 103.449 30.6 103.449 32.456C103.449 32.648 103.439 32.872 103.417 33.128C103.396 33.3627 103.375 33.5867 103.353 33.8H89.3693V30.888H100.729L98.8093 31.752C98.8093 30.856 98.6279 30.0773 98.2653 29.416C97.9026 28.7547 97.4013 28.2427 96.7613 27.88C96.1213 27.496 95.3746 27.304 94.5213 27.304C93.6679 27.304 92.9106 27.496 92.2493 27.88C91.6093 28.2427 91.1079 28.7653 90.7453 29.448C90.3826 30.1093 90.2013 30.8987 90.2013 31.816V32.584C90.2013 33.5227 90.4039 34.3547 90.8093 35.08C91.2359 35.784 91.8226 36.328 92.5693 36.712C93.3373 37.0747 94.2333 37.256 95.2573 37.256C96.1746 37.256 96.9746 37.1173 97.6573 36.84C98.3613 36.5627 99.0013 36.1467 99.5773 35.592L102.233 38.472C101.444 39.368 100.452 40.0613 99.2573 40.552C98.0626 41.0213 96.6866 41.256 95.1293 41.256ZM114.485 41.384C112.693 41.384 110.975 41.1493 109.333 40.68C107.69 40.1893 106.367 39.56 105.365 38.792L107.125 34.888C108.085 35.5707 109.215 36.136 110.517 36.584C111.839 37.0107 113.173 37.224 114.517 37.224C115.541 37.224 116.362 37.128 116.981 36.936C117.621 36.7227 118.09 36.4347 118.389 36.072C118.687 35.7093 118.837 35.2933 118.837 34.824C118.837 34.2267 118.602 33.7573 118.133 33.416C117.663 33.0533 117.045 32.7653 116.277 32.552C115.509 32.3173 114.655 32.104 113.717 31.912C112.799 31.6987 111.871 31.4427 110.933 31.144C110.015 30.8453 109.173 30.4613 108.405 29.992C107.637 29.5227 107.007 28.904 106.517 28.136C106.047 27.368 105.813 26.3867 105.813 25.192C105.813 23.912 106.154 22.7493 106.837 21.704C107.541 20.6373 108.586 19.7947 109.973 19.176C111.381 18.536 113.141 18.216 115.253 18.216C116.661 18.216 118.047 18.3867 119.413 18.728C120.778 19.048 121.983 19.5387 123.029 20.2L121.429 24.136C120.383 23.5387 119.338 23.1013 118.293 22.824C117.247 22.5253 116.223 22.376 115.221 22.376C114.218 22.376 113.397 22.4933 112.757 22.728C112.117 22.9627 111.658 23.272 111.381 23.656C111.103 24.0187 110.965 24.4453 110.965 24.936C110.965 25.512 111.199 25.9813 111.669 26.344C112.138 26.6853 112.757 26.9627 113.525 27.176C114.293 27.3893 115.135 27.6027 116.053 27.816C116.991 28.0293 117.919 28.2747 118.837 28.552C119.775 28.8293 120.629 29.2027 121.397 29.672C122.165 30.1413 122.783 30.76 123.253 31.528C123.743 32.296 123.989 33.2667 123.989 34.44C123.989 35.6987 123.637 36.8507 122.933 37.896C122.229 38.9413 121.173 39.784 119.765 40.424C118.378 41.064 116.618 41.384 114.485 41.384ZM135.723 41.256C133.76 41.256 132.032 40.872 130.539 40.104C129.067 39.336 127.926 38.2907 127.115 36.968C126.304 35.624 125.899 34.0987 125.899 32.392C125.899 30.664 126.294 29.1387 127.083 27.816C127.894 26.472 128.992 25.4267 130.379 24.68C131.766 23.912 133.334 23.528 135.083 23.528C136.768 23.528 138.283 23.8907 139.627 24.616C140.992 25.32 142.07 26.344 142.859 27.688C143.648 29.0107 144.043 30.6 144.043 32.456C144.043 32.648 144.032 32.872 144.011 33.128C143.99 33.3627 143.968 33.5867 143.947 33.8H129.963V30.888H141.323L139.403 31.752C139.403 30.856 139.222 30.0773 138.859 29.416C138.496 28.7547 137.995 28.2427 137.355 27.88C136.715 27.496 135.968 27.304 135.115 27.304C134.262 27.304 133.504 27.496 132.843 27.88C132.203 28.2427 131.702 28.7653 131.339 29.448C130.976 30.1093 130.795 30.8987 130.795 31.816V32.584C130.795 33.5227 130.998 34.3547 131.403 35.08C131.83 35.784 132.416 36.328 133.163 36.712C133.931 37.0747 134.827 37.256 135.851 37.256C136.768 37.256 137.568 37.1173 138.251 36.84C138.955 36.5627 139.595 36.1467 140.171 35.592L142.827 38.472C142.038 39.368 141.046 40.0613 139.851 40.552C138.656 41.0213 137.28 41.256 135.723 41.256ZM155.911 41.256C153.948 41.256 152.22 40.872 150.727 40.104C149.255 39.336 148.113 38.2907 147.303 36.968C146.492 35.624 146.087 34.0987 146.087 32.392C146.087 30.664 146.481 29.1387 147.271 27.816C148.081 26.472 149.18 25.4267 150.567 24.68C151.953 23.912 153.521 23.528 155.271 23.528C156.956 23.528 158.471 23.8907 159.815 24.616C161.18 25.32 162.257 26.344 163.047 27.688C163.836 29.0107 164.231 30.6 164.231 32.456C164.231 32.648 164.22 32.872 164.199 33.128C164.177 33.3627 164.156 33.5867 164.135 33.8H150.151V30.888H161.51L159.591 31.752C159.591 30.856 159.409 30.0773 159.047 29.416C158.684 28.7547 158.183 28.2427 157.543 27.88C156.903 27.496 156.156 27.304 155.303 27.304C154.449 27.304 153.692 27.496 153.031 27.88C152.391 28.2427 151.889 28.7653 151.527 29.448C151.164 30.1093 150.983 30.8987 150.983 31.816V32.584C150.983 33.5227 151.185 34.3547 151.591 35.08C152.017 35.784 152.604 36.328 153.351 36.712C154.119 37.0747 155.015 37.256 156.039 37.256C156.956 37.256 157.756 37.1173 158.439 36.84C159.143 36.5627 159.783 36.1467 160.359 35.592L163.015 38.472C162.225 39.368 161.233 40.0613 160.039 40.552C158.844 41.0213 157.468 41.256 155.911 41.256Z" fill="black"/>
<circle cx="4.66667" cy="17.6667" r="4.66667" fill="black"/>
<circle cx="23.3333" cy="17.6667" r="4.66667" transform="rotate(90 23.3333 17.6667)" fill="black"/>
<circle cx="4.66667" cy="29.9787" r="4.66667" fill="black"/>
<circle cx="23.3333" cy="29.9787" r="4.66667" transform="rotate(90 23.3333 29.9787)" fill="black"/>
<circle cx="14" cy="41.2979" r="4.66667" fill="black"/>
</svg>
